<svg data-v-562b0aec="" width="28" height="28" viewbox="0 0 32 32" fill="#202a7a" xmlns="http://www.w3.org/2000/svg">
<path data-v-562b0aec="" d="M1.78182 25.7423C1.80618 25.734 1.82692 25.7268 1.84344 25.7213C5.48366 24.3209 9.12388 21.7067 10.8973 19.9795C11.4807 19.396 11.784 18.7191 11.714 17.8555C11.714 17.6545 11.678 17.4534 11.6404 17.2438C11.6256 17.1613 11.6105 17.0776 11.5974 16.9919C10.7807 10.9934 11.574 6.60535 12.1341 4.59806C12.2274 4.22461 12.1341 4.15458 12.0407 4.1079C11.9474 4.06122 11.8307 4.1079 11.7607 4.17792C11.1307 4.92482 6.90708 11.7169 5.29699 14.5412C3.99024 16.7819 0.980059 22.2669 0.093339 24.7877C0.093339 24.8048 0.080834 24.85 0.0649784 24.9074C0.0375153 25.0067 0 25.1424 0 25.2312C0 25.6746 0.280017 26.0247 0.88672 25.9781C1.216 25.9369 1.59976 25.8049 1.78182 25.7423Z"></path><path data-v-562b0aec="" d="M24.4781 25.3245C21.4446 22.8738 17.361 21.0298 14.9809 20.3763C14.1875 20.1662 13.4641 20.2363 12.7174 20.7264C12.4841 20.8898 12.2741 21.0532 12.0174 21.2632C7.23376 24.9744 3.01017 26.4682 0.980044 27.005C0.606688 27.0984 0.583353 27.2151 0.583353 27.3318C0.583353 27.4485 0.676692 27.5185 0.770031 27.5419C1.72676 27.7286 9.75391 27.962 12.9974 27.9387C15.5876 27.9387 21.8646 27.7986 24.4781 27.2851C24.5248 27.2851 24.7815 27.2151 24.9215 27.1451C25.2948 26.935 25.4815 26.4915 25.1315 26.0014C24.8982 25.698 24.5481 25.3945 24.4315 25.3012L24.4781 25.3245Z"></path><path data-v-562b0aec="" d="M15.1871 18.6183C15.0214 18.5523 14.8609 18.4885 14.7009 18.4157L14.6775 18.369C13.8841 17.9722 13.4408 17.3887 13.2308 16.5951C12.6007 14.2144 12.1574 9.75633 12.7641 5.90513L12.7686 5.87782C12.7958 5.71181 12.8668 5.27815 13.0208 4.94816C13.2774 4.41133 13.7441 4.36464 14.1175 4.57471C14.2575 4.64473 14.4442 4.83146 14.4675 4.87814C16.2176 6.90877 19.4611 12.2538 20.7679 14.4945C22.4013 17.2954 26.2049 24.3442 26.5316 25.2778C26.5782 25.3712 26.5549 25.4879 26.4616 25.5579C26.3682 25.628 26.2749 25.6746 25.9949 25.3945C24.5248 23.9241 21.1179 21.0299 15.4942 18.7425C15.389 18.6986 15.287 18.658 15.1871 18.6183Z"></path></svg>