<svg width="14" height="14" viewBox="0 0 14 14" fill="none" xmlns="http://www.w3.org/2000/svg"><path fill-rule="evenodd" clip-rule="evenodd" d="M6.41702 7.04427C6.41592 7.02966 6.41536 7.01489 6.41536 7V2.33333C6.41536 2.01133 6.67611 1.75 6.9987 1.75C7.32128 1.75 7.58203 2.01133 7.58203 2.33333V6.9999L8.98203 5.95C9.23986 5.75575 9.60562 5.80883 9.7987 6.06667C9.99236 6.3245 9.93987 6.69025 9.68203 6.88333L7.3487 8.63333C7.24545 8.71092 7.12178 8.75 6.9987 8.75C6.88145 8.75 6.7642 8.71442 6.66328 8.64383L4.32995 7.00233C4.06628 6.81683 4.0027 6.45283 4.1882 6.18975C4.3737 5.92608 4.73711 5.8625 5.00078 6.048L6.41702 7.04427ZM3.4987 9.91667V10.5H10.4987V9.91667C10.4987 9.59583 10.7612 9.33333 11.082 9.33333C11.4029 9.33333 11.6654 9.59583 11.6654 9.91667V11.0833C11.6654 11.4042 11.4029 11.6667 11.082 11.6667H2.91536C2.59453 11.6667 2.33203 11.4042 2.33203 11.0833V9.91667C2.33203 9.59583 2.59453 9.33333 2.91536 9.33333C3.2362 9.33333 3.4987 9.59583 3.4987 9.91667Z" fill="#182CC0"></path><mask id="mask0_233_12132" maskUnits="userSpaceOnUse" x="2" y="1" width="10" height="11" style="mask-type: luminance;"><path fill-rule="evenodd" clip-rule="evenodd" d="M6.41702 7.04427C6.41592 7.02966 6.41536 7.01489 6.41536 7V2.33333C6.41536 2.01133 6.67611 1.75 6.9987 1.75C7.32128 1.75 7.58203 2.01133 7.58203 2.33333V6.9999L8.98203 5.95C9.23986 5.75575 9.60562 5.80883 9.7987 6.06667C9.99236 6.3245 9.93987 6.69025 9.68203 6.88333L7.3487 8.63333C7.24545 8.71092 7.12178 8.75 6.9987 8.75C6.88145 8.75 6.7642 8.71442 6.66328 8.64383L4.32995 7.00233C4.06628 6.81683 4.0027 6.45283 4.1882 6.18975C4.3737 5.92608 4.73711 5.8625 5.00078 6.048L6.41702 7.04427ZM3.4987 9.91667V10.5H10.4987V9.91667C10.4987 9.59583 10.7612 9.33333 11.082 9.33333C11.4029 9.33333 11.6654 9.59583 11.6654 9.91667V11.0833C11.6654 11.4042 11.4029 11.6667 11.082 11.6667H2.91536C2.59453 11.6667 2.33203 11.4042 2.33203 11.0833V9.91667C2.33203 9.59583 2.59453 9.33333 2.91536 9.33333C3.2362 9.33333 3.4987 9.59583 3.4987 9.91667Z" fill="white"></path></mask><g mask="url(#mask0_233_12132)"></g></svg>