<svg data-v-42e74cda="" width="28" height="28" viewBox="0 0 28 28" fill="currentColor" xmlns="http://www.w3.org/2000/svg"><path data-v-42e74cda="" d="M14.0007 25.6666C7.58398 25.6666 2.33398 20.4166 2.33398 13.9999C2.33398 7.58325 7.58398 2.33325 14.0007 2.33325C20.4173 2.33325 25.6673 7.58325 25.6673 13.9999C25.6673 15.8666 25.3173 17.6166 24.5007 19.1333C24.2673 19.7166 23.5673 19.9499 22.984 19.7166C22.4007 19.4833 22.1673 18.7833 22.4007 18.1999C23.1007 16.9166 23.334 15.5166 23.334 13.9999C23.334 8.86658 19.134 4.66659 14.0007 4.66659C8.86732 4.66659 4.66732 8.86658 4.66732 13.9999C4.66732 18.7833 8.28398 22.6333 12.834 23.2166V22.1666C12.834 21.4666 13.3007 20.9999 14.0007 20.9999C14.7007 20.9999 15.1673 21.4666 15.1673 22.1666V24.4999C15.1673 25.1999 14.7007 25.6666 14.0007 25.6666ZM9.33398 18.6666C8.98398 18.6666 8.63398 18.5499 8.40065 18.1999C7.46732 16.9166 7.00065 15.5166 7.00065 13.9999C7.00065 12.4833 7.46732 10.9666 8.40065 9.79992C8.75065 9.33325 9.56732 9.21658 10.034 9.56658C10.5007 9.91658 10.6173 10.7333 10.2673 11.1999C9.68398 12.0166 9.33398 12.9499 9.33398 13.9999C9.33398 15.0499 9.68398 15.9833 10.2673 16.7999C10.6173 17.2666 10.5007 18.0833 10.034 18.4333C9.80065 18.5499 9.56732 18.6666 9.33398 18.6666ZM18.6673 18.6666C18.434 18.6666 18.2007 18.5499 17.9673 18.4333C17.5007 18.0833 17.384 17.2666 17.734 16.7999C18.3173 15.9833 18.6673 15.0499 18.6673 13.9999C18.6673 12.9499 18.3173 12.0166 17.734 11.1999C17.384 10.7333 17.5007 9.91658 17.9673 9.56658C18.434 9.21658 19.2506 9.33325 19.6006 9.79992C20.534 10.9666 21.0007 12.4833 21.0007 13.9999C21.0007 15.5166 20.534 17.0333 19.6006 18.1999C19.3673 18.4333 19.0173 18.6666 18.6673 18.6666Z"></path></svg>