<svg data-v-42e74cda="" width="28" height="28" viewBox="0 0 28 28" fill="currentColor" xmlns="http://www.w3.org/2000/svg"><path data-v-42e74cda="" d="M21.0007 4.66675H7.00065C4.42232 4.66675 2.33398 6.75508 2.33398 9.33342V18.6784C2.33398 21.2568 4.42232 23.3451 7.00065 23.3451H21.0007C23.579 23.3451 25.6673 21.2568 25.6673 18.6784V9.33342C25.6673 6.75508 23.579 4.66675 21.0007 4.66675ZM21.0007 7.00008C21.1407 7.00008 21.269 7.02342 21.409 7.03508L14.0007 11.4801L6.56898 7.04675C6.70898 7.02341 6.86065 7.00008 7.01232 7.00008H21.0123H21.0007ZM23.334 18.6784C23.334 19.9618 22.284 21.0117 21.0007 21.0117H7.00065C5.71732 21.0117 4.66732 19.9618 4.66732 18.6784V9.33342C4.66732 9.11175 4.71398 8.90175 4.77232 8.69175L13.4057 13.8484C13.5923 13.9534 13.7907 14.0117 14.0007 14.0117C14.2107 14.0117 14.4207 13.9534 14.5957 13.8484L23.2173 8.66841C23.2756 8.87842 23.3223 9.10008 23.3223 9.33342V18.6784H23.334Z"></path></svg>