<svg data-v-42e74cda="" width="28" height="28" viewBox="0 0 28 28" fill="currentColor" xmlns="http://www.w3.org/2000/svg"><path data-v-42e74cda="" d="M14 2.33334C9.49665 2.33334 5.83331 5.99668 5.83331 10.5C5.83331 17.115 11.9466 24.5117 12.2033 24.8267C12.6466 25.3633 13.3 25.6667 14 25.6667C14.6883 25.6667 15.3533 25.3517 15.7966 24.8267C16.0533 24.5117 22.1666 17.08 22.1666 10.5C22.1666 5.99668 18.5033 2.33334 14 2.33334ZM14 23.3333C14 23.3333 8.16665 16.345 8.16665 10.5C8.16665 7.28001 10.78 4.66668 14 4.66668C17.22 4.66668 19.8333 7.28001 19.8333 10.5C19.8333 16.31 14 23.3333 14 23.3333ZM14 7.00001C12.075 7.00001 10.5 8.57501 10.5 10.5C10.5 12.425 12.075 14 14 14C15.925 14 17.5 12.425 17.5 10.5C17.5 8.57501 15.925 7.00001 14 7.00001ZM14 11.6667C13.3583 11.6667 12.8333 11.1417 12.8333 10.5C12.8333 9.85834 13.3583 9.33334 14 9.33334C14.6416 9.33334 15.1666 9.85834 15.1666 10.5C15.1666 11.1417 14.6416 11.6667 14 11.6667Z"></path></svg>